<svg width="96" height="21" viewBox="0 0 96 21" fill="none" xmlns="http://www.w3.org/2000/svg">
<circle cx="5.83362" cy="6.48151" r="5.18519" fill="#0D5183"/>
<circle cx="17.5001" cy="6.48145" r="5.18519" fill="#0D5183"/>
<rect y="13.2222" width="23.3333" height="7.77778" fill="#0D5183"/>
<path d="M87.3447 20.662V6.68996H90.0208L90.2743 9.33789C90.7626 8.41768 91.4387 7.69467 92.3025 7.16884C93.1852 6.62423 94.2462 6.35193 95.4857 6.35193V9.47873H94.6688C93.8425 9.47873 93.1007 9.61958 92.4434 9.90127C91.8049 10.1642 91.2884 10.6243 90.8941 11.2816C90.5185 11.9201 90.3307 12.8121 90.3307 13.9577V20.662H87.3447Z" fill="#302F2F"/>
<path d="M77.017 21C75.6836 21 74.4817 20.6995 73.4113 20.0986C72.3596 19.4789 71.5239 18.6244 70.9042 17.5352C70.2845 16.4272 69.9746 15.1408 69.9746 13.676C69.9746 12.2112 70.2845 10.9342 70.9042 9.84493C71.5427 8.73694 72.3972 7.88247 73.4676 7.28152C74.5381 6.66179 75.7306 6.35193 77.0451 6.35193C78.3785 6.35193 79.571 6.66179 80.6226 7.28152C81.6931 7.88247 82.5382 8.73694 83.1579 9.84493C83.7964 10.9342 84.1157 12.2112 84.1157 13.676C84.1157 15.1408 83.7964 16.4272 83.1579 17.5352C82.5382 18.6244 81.6931 19.4789 80.6226 20.0986C79.5522 20.6995 78.3503 21 77.017 21ZM77.017 18.4366C77.7306 18.4366 78.3879 18.2582 78.9888 17.9014C79.6085 17.5446 80.1062 17.0187 80.4818 16.3239C80.8574 15.6103 81.0452 14.7276 81.0452 13.676C81.0452 12.6243 80.8574 11.7511 80.4818 11.0562C80.125 10.3426 79.6367 9.80737 79.017 9.45056C78.416 9.09375 77.7588 8.91534 77.0451 8.91534C76.3315 8.91534 75.6648 9.09375 75.0451 9.45056C74.4442 9.80737 73.9559 10.3426 73.5803 11.0562C73.2047 11.7511 73.0169 12.6243 73.0169 13.676C73.0169 14.7276 73.2047 15.6103 73.5803 16.3239C73.9559 17.0187 74.4442 17.5446 75.0451 17.9014C75.6461 18.2582 76.3033 18.4366 77.017 18.4366Z" fill="#302F2F"/>
<path d="M61.6448 21C59.8795 21 58.4241 20.5681 57.2785 19.7042C56.1329 18.8404 55.4757 17.6948 55.3066 16.2676H58.3208C58.471 16.9061 58.8278 17.4601 59.3912 17.9296C59.9546 18.3803 60.6964 18.6056 61.6166 18.6056C62.518 18.6056 63.1753 18.4178 63.5884 18.0422C64.0016 17.6666 64.2082 17.2347 64.2082 16.7464C64.2082 16.0328 63.9171 15.5539 63.3349 15.3098C62.7715 15.0469 61.9828 14.8121 60.9687 14.6056C60.1799 14.4365 59.3912 14.2112 58.6025 13.9295C57.8325 13.6478 57.1846 13.2534 56.6588 12.7464C56.1517 12.2206 55.8982 11.5163 55.8982 10.6337C55.8982 9.413 56.3677 8.3989 57.3067 7.59138C58.2456 6.76508 59.5602 6.35193 61.2504 6.35193C62.8091 6.35193 64.0673 6.72752 65.0251 7.4787C66.0016 8.22989 66.5744 9.29094 66.7434 10.6618H63.8701C63.7762 10.0609 63.4945 9.59141 63.0251 9.25338C62.5743 8.91534 61.964 8.74633 61.194 8.74633C60.4429 8.74633 59.8607 8.90595 59.4475 9.22521C59.0344 9.52568 58.8278 9.92005 58.8278 10.4083C58.8278 10.8966 59.1095 11.2816 59.6729 11.5633C60.2551 11.845 61.0156 12.0985 61.9546 12.3238C62.8936 12.5304 63.7575 12.7746 64.5462 13.0562C65.3537 13.3192 66.0016 13.7135 66.4899 14.2394C66.9782 14.7652 67.2223 15.5352 67.2223 16.5493C67.2411 17.8263 66.7434 18.8873 65.7293 19.7324C64.734 20.5775 63.3725 21 61.6448 21Z" fill="#302F2F"/>
<path d="M50.6322 4.04203C50.0688 4.04203 49.5993 3.87301 49.2237 3.53498C48.8669 3.17817 48.6885 2.73685 48.6885 2.21102C48.6885 1.68519 48.8669 1.25326 49.2237 0.915224C49.5993 0.558411 50.0688 0.380005 50.6322 0.380005C51.1956 0.380005 51.6557 0.558411 52.0125 0.915224C52.3881 1.25326 52.5759 1.68519 52.5759 2.21102C52.5759 2.73685 52.3881 3.17817 52.0125 3.53498C51.6557 3.87301 51.1956 4.04203 50.6322 4.04203ZM49.1392 20.662V6.68995H52.1251V20.662H49.1392Z" fill="#302F2F"/>
<path d="M35.6294 20.6619L28.3335 0.943359H31.5166L37.4322 17.5633L43.376 0.943359H46.5309L39.2351 20.6619H35.6294Z" fill="#302F2F"/>
</svg>
